<svg width="28" height="28" viewBox="0 0 28 28" fill="none" xmlns="http://www.w3.org/2000/svg">
<path d="M7.37468 14.2322C7.31912 14.0826 7.31912 13.9179 7.37468 13.7682C7.91581 12.4561 8.83435 11.3343 10.0139 10.5448C11.1934 9.75541 12.5807 9.33398 14 9.33398C15.4193 9.33398 16.8067 9.75541 17.9862 10.5448C19.1657 11.3343 20.0842 12.4561 20.6253 13.7682C20.6809 13.9179 20.6809 14.0826 20.6253 14.2322C20.0842 15.5443 19.1657 16.6662 17.9862 17.4556C16.8067 18.2451 15.4193 18.6665 14 18.6665C12.5807 18.6665 11.1934 18.2451 10.0139 17.4556C8.83435 16.6662 7.91581 15.5443 7.37468 14.2322Z" stroke="#64748B" stroke-width="1.33333" stroke-linecap="round" stroke-linejoin="round"/>
<path d="M14 16C15.1046 16 16 15.1046 16 14C16 12.8954 15.1046 12 14 12C12.8954 12 12 12.8954 12 14C12 15.1046 12.8954 16 14 16Z" stroke="#64748B" stroke-width="1.33333" stroke-linecap="round" stroke-linejoin="round"/>
</svg>
