<?xml version="1.0" standalone="no"?>
<!DOCTYPE svg PUBLIC "-//W3C//DTD SVG 20010904//EN"
 "http://www.w3.org/TR/2001/REC-SVG-20010904/DTD/svg10.dtd">
<svg version="1.0" xmlns="http://www.w3.org/2000/svg"
 width="75.000000pt" height="75.000000pt" viewBox="0 0 75.000000 75.000000"
 preserveAspectRatio="xMidYMid meet">

<g transform="translate(0.000000,75.000000) scale(0.100000,-0.100000)"
fill="#000000" stroke="none">
<path d="M260 663 c-63 -23 -151 -113 -173 -177 -22 -63 -22 -159 0 -222 23
-67 110 -154 177 -177 27 -9 77 -17 111 -17 34 0 84 8 111 17 67 23 154 110
177 177 22 63 22 159 0 222 -23 67 -110 154 -177 177 -61 21 -166 21 -226 0z
m232 -31 c150 -66 212 -262 127 -402 l-20 -33 -30 29 -30 29 -164 0 -164 0
-29 -29 -30 -28 -16 24 c-101 154 -23 365 156 424 55 18 142 12 200 -14z m31
-405 c18 -8 39 -22 47 -31 12 -16 11 -20 -10 -38 -106 -85 -264 -85 -370 0
-21 18 -22 22 -10 38 28 33 72 43 193 44 77 0 129 -5 150 -13z"/>
<path d="M301 514 c-43 -36 -58 -89 -38 -137 18 -43 68 -77 113 -77 75 0 137
85 114 156 -27 81 -126 111 -189 58z m119 -9 c56 -29 67 -93 24 -144 -21 -26
-33 -31 -69 -31 -36 0 -48 5 -69 31 -42 50 -32 114 22 143 35 19 56 20 92 1z"/>
</g>
</svg>
