<svg width="14" height="14" viewBox="0 0 14 14" fill="none" xmlns="http://www.w3.org/2000/svg">
<g clip-path="url(#clip0_597_1405)">
<path d="M8.74967 1.1665H3.49967C3.19026 1.1665 2.89351 1.28942 2.67472 1.50821C2.45592 1.72701 2.33301 2.02375 2.33301 2.33317V11.6665C2.33301 11.9759 2.45592 12.2727 2.67472 12.4915C2.89351 12.7103 3.19026 12.8332 3.49967 12.8332H10.4997C10.8091 12.8332 11.1058 12.7103 11.3246 12.4915C11.5434 12.2727 11.6663 11.9759 11.6663 11.6665V4.08317L8.74967 1.1665Z" stroke="#364153" stroke-width="1.16667" stroke-linecap="round" stroke-linejoin="round"/>
<path d="M8.16699 1.1665V3.49984C8.16699 3.80926 8.28991 4.106 8.5087 4.3248C8.72749 4.54359 9.02424 4.6665 9.33366 4.6665H11.667" stroke="#364153" stroke-width="1.16667" stroke-linecap="round" stroke-linejoin="round"/>
<path d="M5.83366 5.25H4.66699" stroke="#364153" stroke-width="1.16667" stroke-linecap="round" stroke-linejoin="round"/>
<path d="M9.33366 7.5835H4.66699" stroke="#364153" stroke-width="1.16667" stroke-linecap="round" stroke-linejoin="round"/>
<path d="M9.33366 9.9165H4.66699" stroke="#364153" stroke-width="1.16667" stroke-linecap="round" stroke-linejoin="round"/>
</g>
<defs>
<clipPath id="clip0_597_1405">
<rect width="14" height="14" fill="white"/>
</clipPath>
</defs>
</svg>
