<svg width="24" height="24" viewBox="0 0 24 24" fill="none" xmlns="http://www.w3.org/2000/svg">
<path d="M6.39941 2.80566C6.58696 2.75281 6.80066 2.85919 6.85449 3.07227L7.44336 5.27148L12.0771 4.05664L12.1553 4.04395C12.3363 4.03202 12.5071 4.13525 12.5547 4.32422L13.5371 7.95996L17.1289 7L17.207 6.9873C17.3879 6.97535 17.5586 7.07805 17.6064 7.2666L19.4473 14.1016L21.0918 13.6738L21.1699 13.6611C21.3509 13.6492 21.5217 13.7525 21.5693 13.9414L22.0098 15.5635L22.0352 15.6816C22.1318 16.2718 21.7795 16.8748 21.1855 16.9902L21.1865 16.9912L15.2451 18.5566C15.319 19.7233 14.5683 20.8112 13.3994 21.1152L13.4004 21.1162C12.2316 21.4434 11.0176 20.8695 10.5098 19.8281L9.53027 20.0967H9.5293C9.32201 20.1484 9.10639 20.0456 9.05176 19.8301L5.05566 5.11523L3.15625 5.58984C2.66711 5.71205 2.1309 5.41928 1.98438 4.90625C1.83715 4.39065 2.15651 3.87833 2.66699 3.73242L2.66895 3.73145L6.39941 2.80469V2.80566ZM14.4277 18.4131C14.2479 17.5141 13.2795 16.8605 12.2881 17.1309H12.2871C11.3419 17.3787 10.802 18.346 11.0947 19.292C11.3645 20.1688 12.2862 20.6653 13.1875 20.418L13.3457 20.3643C14.1162 20.0644 14.6173 19.2778 14.4277 18.4141V18.4131ZM2.85547 4.45508C2.73855 4.49238 2.69983 4.60498 2.72656 4.70703C2.73995 4.75766 2.76888 4.80104 2.80859 4.82715C2.84723 4.85255 2.89975 4.86405 2.96777 4.84473H2.96973L5.24121 4.28809L5.25293 4.28516V4.28711H5.32227C5.46608 4.28711 5.6031 4.38907 5.66992 4.51855L5.69434 4.57617L5.69531 4.57812V4.5791L9.69141 19.2705L10.2715 19.1289C10.1771 18.4611 10.3557 17.7402 10.8076 17.1953L10.3408 17.3164H10.3398C10.1324 17.368 9.91659 17.2648 9.8623 17.0488L6.21387 3.60938L2.85547 4.45508ZM13.6299 16.4619C14.2774 16.701 14.8124 17.2181 15.0615 17.8564L20.9756 16.293C21.1741 16.2387 21.2941 16.0582 21.2793 15.8604L21.2646 15.7744L20.9297 14.5244C18.6525 15.1331 15.8599 15.8705 13.6299 16.4619ZM8.74414 10.0264L10.502 16.4873L18.7246 14.3125L16.9668 7.84961L8.74414 10.0264ZM7.6543 6.0166L8.53223 9.28027L12.792 8.14844L11.915 4.88379L7.6543 6.0166Z" fill="#5D6679" stroke="#5D6679" stroke-width="0.1"/>
</svg>
