<svg width="20" height="20" viewBox="0 0 20 20" fill="none" xmlns="http://www.w3.org/2000/svg">
<path d="M1.66699 5.83317L5.34199 2.15817C5.49704 2.0022 5.68142 1.87845 5.88452 1.79407C6.08761 1.70968 6.3054 1.66633 6.52533 1.6665H13.4753C13.6953 1.66633 13.913 1.70968 14.1161 1.79407C14.3192 1.87845 14.5036 2.0022 14.6587 2.15817L18.3337 5.83317" stroke="#5D6679" stroke-linecap="round" stroke-linejoin="round"/>
<path d="M3.33301 10V16.6667C3.33301 17.1087 3.5086 17.5326 3.82116 17.8452C4.13372 18.1577 4.55765 18.3333 4.99967 18.3333H14.9997C15.4417 18.3333 15.8656 18.1577 16.1782 17.8452C16.4907 17.5326 16.6663 17.1087 16.6663 16.6667V10" stroke="#5D6679" stroke-linecap="round" stroke-linejoin="round"/>
<path d="M12.5 18.3335V15.0002C12.5 14.5581 12.3244 14.1342 12.0118 13.8217C11.6993 13.5091 11.2754 13.3335 10.8333 13.3335H9.16667C8.72464 13.3335 8.30072 13.5091 7.98816 13.8217C7.6756 14.1342 7.5 14.5581 7.5 15.0002V18.3335" stroke="#5D6679" stroke-linecap="round" stroke-linejoin="round"/>
<path d="M1.66699 5.8335H18.3337" stroke="#5D6679" stroke-linecap="round" stroke-linejoin="round"/>
<path d="M18.3337 5.8335V8.3335C18.3337 8.77552 18.1581 9.19945 17.8455 9.51201C17.5329 9.82457 17.109 10.0002 16.667 10.0002C16.1801 9.97336 15.7151 9.78912 15.342 9.47516C15.2426 9.40331 15.123 9.36463 15.0003 9.36463C14.8776 9.36463 14.7581 9.40331 14.6587 9.47516C14.2856 9.78912 13.8205 9.97336 13.3337 10.0002C12.8468 9.97336 12.3818 9.78912 12.0087 9.47516C11.9092 9.40331 11.7897 9.36463 11.667 9.36463C11.5443 9.36463 11.4248 9.40331 11.3253 9.47516C10.9522 9.78912 10.4872 9.97336 10.0003 10.0002C9.51344 9.97336 9.04843 9.78912 8.67533 9.47516C8.57589 9.40331 8.45634 9.36463 8.33366 9.36463C8.21098 9.36463 8.09142 9.40331 7.99199 9.47516C7.61888 9.78912 7.15388 9.97336 6.66699 10.0002C6.1801 9.97336 5.7151 9.78912 5.34199 9.47516C5.24256 9.40331 5.123 9.36463 5.00033 9.36463C4.87765 9.36463 4.75809 9.40331 4.65866 9.47516C4.28555 9.78912 3.82055 9.97336 3.33366 10.0002C2.89163 10.0002 2.46771 9.82457 2.15515 9.51201C1.84259 9.19945 1.66699 8.77552 1.66699 8.3335V5.8335" stroke="#5D6679" stroke-linecap="round" stroke-linejoin="round"/>
</svg>
