<?xml version="1.0" standalone="no"?>
<!DOCTYPE svg PUBLIC "-//W3C//DTD SVG 20010904//EN"
 "http://www.w3.org/TR/2001/REC-SVG-20010904/DTD/svg10.dtd">
<svg version="1.0" xmlns="http://www.w3.org/2000/svg"
 width="75.000000pt" height="75.000000pt" viewBox="0 0 75.000000 75.000000"
 preserveAspectRatio="xMidYMid meet">

<g transform="translate(0.000000,75.000000) scale(0.100000,-0.100000)"
fill="#000000" stroke="none">
<path d="M143 683 c-10 -4 -13 -76 -13 -313 0 -271 2 -309 16 -314 27 -10 254
-7 254 4 0 6 -48 10 -125 10 -121 0 -125 1 -130 23 -3 12 -4 146 -3 297 l3
275 128 3 c73 1 127 7 127 12 0 10 -234 13 -257 3z"/>
<path d="M480 516 c0 -5 26 -37 58 -70 l57 -61 -167 -3 c-101 -1 -168 -6 -168
-12 0 -6 65 -10 166 -10 l166 0 -57 -65 c-32 -36 -56 -68 -53 -70 2 -2 38 29
78 70 l75 75 -78 78 c-42 42 -77 73 -77 68z"/>
</g>
</svg>
