<?xml version="1.0" standalone="no"?>
<!DOCTYPE svg PUBLIC "-//W3C//DTD SVG 20010904//EN"
 "http://www.w3.org/TR/2001/REC-SVG-20010904/DTD/svg10.dtd">
<svg version="1.0" xmlns="http://www.w3.org/2000/svg"
 width="75.000000pt" height="75.000000pt" viewBox="0 0 75.000000 75.000000"
 preserveAspectRatio="xMidYMid meet">

<g transform="translate(0.000000,75.000000) scale(0.100000,-0.100000)"
fill="#000000" stroke="none">
<path d="M305 636 c-64 -28 -105 -103 -105 -192 0 -52 -25 -134 -50 -167 -11
-14 -20 -30 -20 -36 0 -8 75 -11 245 -11 170 0 245 3 245 11 0 6 -9 22 -20 36
-25 33 -50 115 -50 167 0 152 -121 246 -245 192z m135 -35 c50 -26 70 -67 80
-165 5 -47 18 -106 29 -131 l20 -45 -194 0 -194 0 20 45 c11 25 24 84 29 131
10 98 30 139 80 165 44 24 86 24 130 0z"/>
<path d="M320 141 c0 -50 101 -52 108 -2 4 23 3 23 -26 6 -27 -17 -30 -17 -55
0 -26 17 -27 17 -27 -4z"/>
</g>
</svg>
