<svg width="36" height="36" viewBox="0 0 36 36" fill="none" xmlns="http://www.w3.org/2000/svg">
<path d="M0 8C0 3.58172 3.58172 0 8 0H28C32.4183 0 36 3.58172 36 8V28C36 32.4183 32.4183 36 28 36H8C3.58172 36 0 32.4183 0 28V8Z" fill="#DBEAFE"/>
<g clip-path="url(#clip0_588_1101)">
<path d="M14.6663 26.3333C15.1266 26.3333 15.4997 25.9602 15.4997 25.5C15.4997 25.0397 15.1266 24.6666 14.6663 24.6666C14.2061 24.6666 13.833 25.0397 13.833 25.5C13.833 25.9602 14.2061 26.3333 14.6663 26.3333Z" stroke="#155DFC" stroke-width="1.66667" stroke-linecap="round" stroke-linejoin="round"/>
<path d="M23.8333 26.3333C24.2936 26.3333 24.6667 25.9602 24.6667 25.5C24.6667 25.0397 24.2936 24.6666 23.8333 24.6666C23.3731 24.6666 23 25.0397 23 25.5C23 25.9602 23.3731 26.3333 23.8333 26.3333Z" stroke="#155DFC" stroke-width="1.66667" stroke-linecap="round" stroke-linejoin="round"/>
<path d="M9.70801 9.70837H11.3747L13.5913 20.0584C13.6727 20.4374 13.8836 20.7763 14.1878 21.0166C14.492 21.2569 14.8704 21.3837 15.258 21.375H23.408C23.7873 21.3744 24.1551 21.2444 24.4505 21.0066C24.746 20.7687 24.9515 20.4371 25.033 20.0667L26.408 13.875H12.2663" stroke="#155DFC" stroke-width="1.66667" stroke-linecap="round" stroke-linejoin="round"/>
</g>
<defs>
<clipPath id="clip0_588_1101">
<rect width="20" height="20" fill="white" transform="translate(8 8)"/>
</clipPath>
</defs>
</svg>
