<?xml version="1.0" standalone="no"?>
<!DOCTYPE svg PUBLIC "-//W3C//DTD SVG 20010904//EN"
 "http://www.w3.org/TR/2001/REC-SVG-20010904/DTD/svg10.dtd">
<svg version="1.0" xmlns="http://www.w3.org/2000/svg"
 width="120.000000pt" height="140.000000pt" viewBox="0 0 120.000000 140.000000"
 preserveAspectRatio="xMidYMid meet">

<g transform="translate(0.000000,140.000000) scale(0.100000,-0.100000)"
fill="#000000" stroke="none">
<path d="M210 1160 c0 -36 2 -40 26 -40 21 0 24 4 19 20 -4 14 -2 20 8 20 10
0 13 -7 10 -20 -4 -15 0 -20 16 -20 12 0 32 6 44 12 21 12 21 13 -13 19 l-35
6 40 2 40 1 3 -63 c3 -56 0 -65 -22 -86 -30 -28 -34 -71 -10 -95 22 -22 50
-20 68 6 19 27 21 59 4 54 -7 -1 -10 -1 -5 1 12 7 8 30 -8 43 -16 13 -19 56
-9 109 l7 31 93 0 93 0 5 -42 c3 -24 5 -71 4 -105 l-3 -63 -50 -15 c-68 -19
-127 -72 -155 -137 -32 -74 -31 -138 5 -216 33 -75 28 -91 -12 -31 -26 39 -28
50 -28 136 0 90 -1 93 -22 93 -23 0 -23 -2 -23 -117 0 -158 -28 -318 -64 -373
-15 -23 -26 -51 -24 -63 l3 -22 381 -3 c426 -3 412 -5 374 66 -11 20 -20 47
-20 60 0 12 -12 46 -27 75 -17 33 -27 69 -27 99 -1 47 -1 48 -18 25 -10 -12
-18 -25 -18 -28 0 -11 -50 -7 -50 3 0 5 -15 -3 -32 -18 -54 -45 -106 -64 -178
-64 -68 0 -133 22 -159 53 -19 23 -3 21 57 -8 87 -42 157 -34 249 27 39 26 41
29 30 57 -14 37 2 77 37 91 46 17 45 77 -1 180 -28 60 -69 92 -155 120 l-38
12 0 81 c0 130 -1 127 91 127 l78 0 4 -32 3 -33 8 33 c8 32 9 32 65 31 31 -1
48 -3 39 -6 -22 -6 -23 -19 -2 -27 22 -8 22 -8 27 17 l4 22 2 -23 c1 -18 6
-23 24 -20 18 2 23 10 25 41 l3 37 -390 0 -391 0 0 -40z m163 -187 c-7 -2 -21
-2 -30 0 -10 3 -4 5 12 5 17 0 24 -2 18 -5z m147 -158 c0 -8 -4 -15 -9 -15 -5
0 -11 -12 -13 -27 -2 -17 -10 -29 -20 -31 -14 -3 -18 3 -18 27 0 17 -4 31 -10
31 -5 0 -10 7 -10 15 0 11 11 15 40 15 29 0 40 -4 40 -15z m68 -12 c5 -16 13
-36 17 -45 5 -13 2 -18 -9 -18 -9 0 -20 10 -25 22 l-8 22 -12 -22 c-6 -12 -18
-22 -26 -22 -12 0 -11 7 2 45 18 53 45 61 61 18z m92 12 c0 -8 -4 -15 -10 -15
-5 0 -10 -13 -10 -30 0 -20 -5 -30 -15 -30 -10 0 -15 10 -15 30 0 20 -5 30
-15 30 -8 0 -15 7 -15 15 0 11 11 15 40 15 29 0 40 -4 40 -15z m75 -9 c1 -12
4 -31 9 -43 5 -17 4 -23 -7 -23 -9 0 -20 12 -25 28 l-10 27 -7 -27 c-4 -16
-13 -28 -21 -28 -18 0 -18 12 0 55 12 27 20 34 38 33 16 -1 23 -8 23 -22z
m-224 -173 c13 -16 12 -17 -3 -4 -10 7 -18 15 -18 17 0 8 8 3 21 -13z m-48
-33 c3 -11 1 -18 -4 -14 -5 3 -9 12 -9 20 0 20 7 17 13 -6z m120 5 c-3 -9 -8
-14 -10 -11 -3 3 -2 9 2 15 9 16 15 13 8 -4z m74 -7 c-3 -8 -6 -5 -6 6 -1 11
2 17 5 13 3 -3 4 -12 1 -19z m28 -68 c3 -5 1 -10 -4 -10 -6 0 -11 5 -11 10 0
6 2 10 4 10 3 0 8 -4 11 -10z m-65 -38 c0 -9 -65 -10 -74 -1 -3 3 12 6 34 7
22 2 40 -1 40 -6z m210 -99 c14 -13 17 -20 8 -30 -14 -17 -28 -16 -28 2 0 8
-7 15 -15 15 -8 0 -15 5 -15 11 0 6 7 8 16 5 8 -3 12 -2 9 4 -9 15 3 12 25 -7z
m-340 -54 c0 -5 -25 -9 -55 -9 -37 0 -55 4 -55 13 0 8 16 11 55 9 30 -2 55 -8
55 -13z m100 1 c0 -5 -16 -10 -35 -10 -19 0 -35 5 -35 10 0 6 16 10 35 10 19
0 35 -4 35 -10z m100 0 c0 -5 -18 -10 -39 -10 -22 0 -43 5 -46 10 -4 6 12 10
39 10 25 0 46 -4 46 -10z m-117 -27 c-13 -2 -33 -2 -45 0 -13 2 -3 4 22 4 25
0 35 -2 23 -4z m107 3 c0 -2 -18 -6 -40 -8 -22 -2 -40 0 -40 4 0 5 18 8 40 8
22 0 40 -2 40 -4z"/>
<path d="M930 1025 c0 -8 2 -15 4 -15 2 0 6 7 10 15 3 8 1 15 -4 15 -6 0 -10
-7 -10 -15z"/>
<path d="M256 1015 c4 -8 8 -15 10 -15 2 0 4 7 4 15 0 8 -4 15 -10 15 -5 0 -7
-7 -4 -15z"/>
<path d="M720 1020 c0 -5 5 -10 10 -10 6 0 10 5 10 10 0 6 -4 10 -10 10 -5 0
-10 -4 -10 -10z"/>
<path d="M900 949 c0 -5 5 -7 10 -4 6 3 10 8 10 11 0 2 -4 4 -10 4 -5 0 -10
-5 -10 -11z"/>
<path d="M788 942 c-20 -4 -23 -17 -7 -27 13 -9 59 3 59 14 0 11 -29 18 -52
13z"/>
<path d="M865 711 c1 -44 8 -78 19 -92 15 -22 16 -19 16 69 0 84 -2 92 -19 92
-17 0 -19 -7 -16 -69z"/>
<path d="M794 605 c-31 -48 15 -101 62 -70 24 15 33 45 14 45 -5 0 -10 -4 -10
-10 0 -16 -47 -11 -54 5 -7 20 16 29 49 21 27 -7 32 3 13 22 -20 20 -56 14
-74 -13z"/>
</g>
</svg>
