<?xml version="1.0" standalone="no"?>
<!DOCTYPE svg PUBLIC "-//W3C//DTD SVG 20010904//EN"
 "http://www.w3.org/TR/2001/REC-SVG-20010904/DTD/svg10.dtd">
<svg version="1.0" xmlns="http://www.w3.org/2000/svg"
 width="120.000000pt" height="140.000000pt" viewBox="0 0 120.000000 140.000000"
 preserveAspectRatio="xMidYMid meet">

<g transform="translate(0.000000,140.000000) scale(0.100000,-0.100000)"
fill="#000000" stroke="none">
<path d="M760 1197 c-168 -11 -183 -11 -352 -2 l-138 8 0 -24 c0 -13 9 -53 20
-89 11 -36 20 -82 20 -103 l0 -38 23 24 c17 18 28 22 52 17 98 -21 113 -89 24
-110 l-34 -8 38 -1 c42 -1 47 -16 20 -62 -20 -34 -59 -39 -100 -12 l-26 17 5
-239 c5 -235 5 -239 -19 -282 -12 -24 -23 -54 -23 -66 0 -22 2 -22 120 -19 66
2 120 7 120 13 0 5 7 9 15 9 8 0 15 5 15 10 0 6 11 10 25 10 33 0 22 -27 -13
-33 -15 -2 5 -5 43 -6 39 0 127 -4 198 -8 l127 -6 0 36 c0 19 -5 37 -12 39
-18 6 -20 28 -25 355 -3 180 -9 311 -14 307 -5 -3 -9 -18 -9 -34 0 -25 -5 -30
-36 -36 -43 -8 -84 11 -84 38 0 11 17 39 38 64 31 38 41 44 64 40 36 -7 54 12
73 76 21 73 20 128 -2 126 -10 0 -79 -5 -153 -11z m-413 -78 c8 -8 17 -8 32 1
12 6 31 8 42 5 27 -9 21 -47 -8 -60 -13 -5 -23 -17 -23 -25 0 -8 -8 -1 -18 15
-11 17 -26 36 -35 44 -18 14 -23 31 -9 31 4 0 13 -5 19 -11z m290 -76 c-1 -15
-11 -18 -54 -19 -37 -1 -53 3 -53 12 0 16 16 22 67 23 34 1 42 -2 40 -16z m95
-25 c17 -11 25 -24 21 -34 -6 -17 -29 -13 -25 5 1 6 -1 10 -5 9 -14 -4 -73 21
-73 30 0 27 35 23 82 -10z m-212 1 c0 -5 -7 -9 -15 -9 -8 0 -15 -5 -15 -11 0
-6 -7 -8 -16 -5 -8 3 -12 2 -9 -4 3 -6 2 -10 -4 -10 -22 0 -19 20 6 38 26 19
53 20 53 1z m143 -89 c14 -11 30 -20 36 -20 16 0 31 -36 30 -72 -1 -26 -3 -28
-6 -8 -9 60 -13 69 -28 64 -21 -8 -19 -24 3 -25 16 -1 16 -2 0 -6 -14 -4 -15
-8 -5 -23 13 -23 -3 -47 -23 -35 -8 5 -9 10 -2 14 7 4 8 12 2 21 -6 10 -10 7
-16 -16 -4 -16 -11 -35 -17 -41 -15 -21 43 -16 66 5 19 17 20 17 3 -15 -35
-69 -122 -88 -187 -43 -40 28 -49 39 -48 60 0 10 3 8 8 -5 6 -16 16 -19 52
-17 26 2 52 11 63 22 18 18 18 18 -7 17 -14 -1 -25 -6 -24 -12 1 -5 -15 -11
-37 -13 l-38 -3 6 38 c4 21 10 47 13 57 4 15 2 18 -13 12 -11 -3 -3 9 18 29
31 29 45 35 82 35 28 0 52 -7 69 -20z m-196 -112 c-3 -8 -6 -5 -6 6 -1 11 2
17 5 13 3 -3 4 -12 1 -19z m394 -142 c16 9 -17 -50 -35 -65 -9 -8 -16 -21 -16
-29 0 -15 -2 -15 -17 0 -15 16 -14 19 15 46 24 23 32 39 34 69 1 37 1 37 5 5
3 -19 9 -30 14 -26z m-451 -54 c30 -3 64 -34 80 -73 7 -16 18 -29 24 -29 19
-1 66 -56 76 -89 12 -43 -2 -79 -37 -92 -20 -8 -33 -7 -47 1 -10 6 -36 13 -58
16 -23 2 -49 13 -63 26 -19 18 -21 27 -14 52 6 20 5 32 -1 34 -5 2 -10 13 -10
24 0 11 -5 38 -12 59 -9 33 -9 42 5 57 10 11 18 38 19 68 l1 49 6 -50 c5 -44
9 -50 31 -53z m120 44 c0 -3 -4 -8 -10 -11 -5 -3 -10 -1 -10 4 0 6 5 11 10 11
6 0 10 -2 10 -4z m100 0 c0 -3 -4 -8 -10 -11 -5 -3 -10 -1 -10 4 0 6 5 11 10
11 6 0 10 -2 10 -4z m-50 -36 c12 -8 11 -10 -7 -10 -13 0 -23 5 -23 10 0 13
11 13 30 0z m70 -6 c0 -2 -12 -4 -27 -4 -21 0 -24 3 -14 9 13 8 41 5 41 -5z
m200 -74 c0 -11 -4 -20 -9 -20 -5 0 -7 9 -4 20 3 11 7 20 9 20 2 0 4 -9 4 -20z
m-13 -106 c2 -7 -11 -13 -31 -16 -31 -3 -33 -2 -25 15 11 20 50 20 56 1z m40
-106 c-3 -8 -6 -5 -6 6 -1 11 2 17 5 13 3 -3 4 -12 1 -19z m-487 -58 c0 -13
-7 -20 -20 -20 -13 0 -20 7 -20 20 0 13 7 20 20 20 13 0 20 -7 20 -20z m440 0
c0 -5 -7 -10 -15 -10 -8 0 -15 5 -15 10 0 6 7 10 15 10 8 0 15 -4 15 -10z
m-390 -12 c0 -4 -9 -8 -21 -8 -11 0 -18 4 -15 8 3 5 12 9 21 9 8 0 15 -4 15
-9z m45 2 c3 -5 -3 -10 -14 -10 -12 0 -21 5 -21 10 0 6 6 10 14 10 8 0 18 -4
21 -10z m150 -10 c3 -5 2 -10 -4 -10 -5 0 -13 5 -16 10 -3 6 -2 10 4 10 5 0
13 -4 16 -10z"/>
<path d="M531 869 c0 -13 3 -18 6 -11 2 6 17 12 32 12 25 0 28 -3 25 -27 -3
-26 -3 -27 4 -4 11 35 30 38 26 4 l-4 -28 12 28 c7 16 18 25 25 23 7 -3 13 -1
13 4 0 6 -11 10 -24 10 -13 0 -44 3 -70 6 -44 6 -46 6 -45 -17z"/>
<path d="M557 854 c-4 -4 -7 -14 -7 -23 0 -11 3 -12 11 -4 6 6 10 16 7 23 -2
6 -7 8 -11 4z"/>
<path d="M520 820 c0 -11 4 -20 9 -20 5 0 7 9 4 20 -3 11 -7 20 -9 20 -2 0 -4
-9 -4 -20z"/>
<path d="M313 909 c1 -14 7 -26 14 -26 8 0 9 5 4 11 -4 6 -11 18 -14 26 -3 8
-5 3 -4 -11z"/>
<path d="M826 922 c-2 -4 -1 -14 5 -22 7 -12 9 -10 9 8 0 23 -5 28 -14 14z"/>
<path d="M390 899 c0 -5 5 -7 10 -4 6 3 10 8 10 11 0 2 -4 4 -10 4 -5 0 -10
-5 -10 -11z"/>
</g>
</svg>
