<svg width="40" height="40" viewBox="0 0 40 40" fill="none" xmlns="http://www.w3.org/2000/svg">
<circle cx="20" cy="20" r="20" fill="#DF4C4C"/>
<mask id="mask0_525_699" style="mask-type:alpha" maskUnits="userSpaceOnUse" x="0" y="0" width="40" height="40">
<circle cx="20" cy="20" r="20" fill="#7C72F1"/>
</mask>
<g mask="url(#mask0_525_699)">
<path d="M8.40039 36.4362C8.40039 32.2187 11.8193 28.7998 16.0368 28.7998H23.564C27.7815 28.7998 31.2004 32.2187 31.2004 36.4362C31.2004 38.4043 29.6049 39.9998 27.6368 39.9998H11.964C9.99589 39.9998 8.40039 38.4043 8.40039 36.4362Z" fill="#FFEB80"/>
</g>
<path d="M17.2002 24.3999H22.8002V28.3999C22.8002 29.9463 21.5466 31.1999 20.0002 31.1999C18.4538 31.1999 17.2002 29.9463 17.2002 28.3999V24.3999Z" fill="#EAA18C"/>
<path d="M11.5996 13.8799C11.5996 9.74881 14.9485 6.3999 19.0796 6.3999H20.9196C25.0507 6.3999 28.3996 9.74881 28.3996 13.8799C28.3996 17.039 25.8387 19.5999 22.6796 19.5999H17.3196C14.1605 19.5999 11.5996 17.039 11.5996 13.8799Z" fill="#3C2929"/>
<path d="M12.4004 16.6669C12.4004 13.6477 14.8479 11.2002 17.8671 11.2002H22.1337C25.1529 11.2002 27.6004 13.6477 27.6004 16.6669V20.0002C27.6004 24.1976 24.1978 27.6002 20.0004 27.6002C15.803 27.6002 12.4004 24.1976 12.4004 20.0002V16.6669Z" fill="#F3B9A6"/>
<rect width="4" height="1.6" rx="0.8" transform="matrix(1 0 0 -1 21.2002 16.7998)" fill="#3C2929"/>
<rect width="4" height="1.6" rx="0.8" transform="matrix(1 0 0 -1 14.7998 16.7998)" fill="#3C2929"/>
<rect x="16" y="17.6001" width="1.2" height="2" rx="0.6" fill="#341615"/>
<rect x="22.4004" y="17.6001" width="1.2" height="2" rx="0.6" fill="#341615"/>
<path d="M22.4 22C22.4 22.5304 22.1682 23.0391 21.7556 23.4142C21.3431 23.7893 20.7835 24 20.2 24C19.6165 24 19.0569 23.7893 18.6444 23.4142C18.2318 23.0391 18 22.5304 18 22L20.2 22H22.4Z" fill="white"/>
<path d="M12.4004 20.4C11.87 20.4 11.3612 20.1682 10.9862 19.7556C10.6111 19.3431 10.4004 18.7835 10.4004 18.2C10.4004 17.6165 10.6111 17.0569 10.9862 16.6444C11.3612 16.2318 11.87 16 12.4004 16L12.4004 18.2L12.4004 20.4Z" fill="#EAA18C"/>
<path d="M12.4004 20.4C11.87 20.4 11.3612 20.1682 10.9862 19.7556C10.6111 19.3431 10.4004 18.7835 10.4004 18.2C10.4004 17.6165 10.6111 17.0569 10.9862 16.6444C11.3612 16.2318 11.87 16 12.4004 16L12.4004 18.2L12.4004 20.4Z" fill="#EAA18C"/>
<path d="M27.5996 20.4C28.13 20.4 28.6388 20.1682 29.0138 19.7556C29.3889 19.3431 29.5996 18.7835 29.5996 18.2C29.5996 17.6165 29.3889 17.0569 29.0138 16.6444C28.6388 16.2318 28.13 16 27.5996 16L27.5996 18.2L27.5996 20.4Z" fill="#EAA18C"/>
<path d="M27.5996 20.4C28.13 20.4 28.6388 20.1682 29.0138 19.7556C29.3889 19.3431 29.5996 18.7835 29.5996 18.2C29.5996 17.6165 29.3889 17.0569 29.0138 16.6444C28.6388 16.2318 28.13 16 27.5996 16L27.5996 18.2L27.5996 20.4Z" fill="#EAA18C"/>
</svg>
