<?xml version="1.0" standalone="no"?>
<!DOCTYPE svg PUBLIC "-//W3C//DTD SVG 20010904//EN"
 "http://www.w3.org/TR/2001/REC-SVG-20010904/DTD/svg10.dtd">
<svg version="1.0" xmlns="http://www.w3.org/2000/svg"
 width="292.000000pt" height="55.000000pt" viewBox="0 0 292.000000 55.000000"
 preserveAspectRatio="xMidYMid meet">

<g transform="translate(0.000000,55.000000) scale(0.100000,-0.100000)"
fill="#000000" stroke="none">
<path d="M48 494 c-12 -11 -10 -182 2 -189 6 -4 10 8 10 29 l0 36 48 0 c35 0
54 5 65 18 21 23 22 75 1 93 -17 14 -115 25 -126 13z m117 -38 c22 -34 6 -63
-40 -72 -54 -10 -65 -1 -65 51 l0 45 45 0 c36 0 48 -5 60 -24z"/>
<path d="M210 490 c0 -5 16 -10 35 -10 l35 0 0 -91 c0 -63 3 -88 11 -83 7 4
10 36 8 88 l-4 81 33 3 c62 6 31 22 -43 22 -43 0 -75 -4 -75 -10z"/>
<path d="M40 135 c0 -105 0 -105 25 -105 22 0 24 4 27 58 l3 57 28 -47 c15
-27 32 -48 38 -48 5 0 18 14 27 31 9 17 25 41 34 53 17 20 17 19 18 -41 0 -56
2 -63 20 -63 19 0 20 7 20 105 0 97 -1 105 -19 105 -13 0 -32 -20 -56 -60 -20
-33 -40 -60 -44 -60 -4 0 -23 27 -42 60 -25 45 -40 60 -56 60 -22 0 -23 -3
-23 -105z"/>
<path d="M330 135 c0 -105 0 -106 23 -103 21 3 22 7 22 103 0 96 -1 100 -22
103 -23 3 -23 2 -23 -103z"/>
<path d="M400 220 c0 -16 7 -20 35 -20 l35 0 0 -85 c0 -84 0 -85 25 -85 25 0
25 1 25 85 l0 85 30 0 c23 0 30 4 30 20 0 19 -7 20 -90 20 -83 0 -90 -1 -90
-20z"/>
<path d="M610 136 l0 -106 25 0 c21 0 25 5 25 30 0 42 39 42 63 0 12 -20 26
-30 43 -30 29 0 30 4 4 40 -19 27 -19 27 0 45 27 24 26 76 -1 101 -15 13 -40
20 -90 22 l-69 4 0 -106z m118 55 c8 -4 12 -19 10 -32 -2 -20 -10 -25 -40 -27
-37 -3 -38 -3 -38 32 0 33 3 36 28 36 15 0 33 -4 40 -9z"/>
<path d="M861 157 c-54 -118 -57 -127 -33 -127 11 0 27 11 36 25 14 21 24 25
61 25 39 0 47 -3 55 -25 7 -18 17 -25 35 -25 15 0 24 3 22 8 -2 4 -23 51 -48
104 -37 82 -48 98 -67 98 -19 0 -29 -14 -61 -83z m89 -38 c0 -5 -13 -9 -30 -9
-35 0 -35 -1 -14 48 l15 37 15 -34 c8 -18 14 -37 14 -42z"/>
<path d="M1150 134 l0 -106 75 4 c66 3 78 7 102 31 23 22 28 36 27 72 0 24 -7
52 -15 61 -22 27 -74 44 -134 44 l-55 0 0 -106z m140 46 c45 -45 9 -114 -58
-108 -37 3 -37 3 -40 52 -2 27 -1 55 2 62 8 22 73 17 96 -6z"/>
<path d="M1394 227 c-3 -8 -4 -54 -2 -103 3 -84 4 -89 26 -92 22 -3 22 -2 22
102 0 100 -1 106 -20 106 -11 0 -23 -6 -26 -13z"/>
<path d="M1512 228 c-26 -13 -39 -54 -25 -77 5 -9 32 -23 59 -32 32 -10 50
-22 53 -34 3 -16 -3 -17 -53 -12 -60 6 -82 -6 -51 -30 29 -21 111 -17 135 7
40 40 22 78 -47 100 -65 20 -66 45 0 44 38 0 47 3 47 17 0 29 -70 39 -118 17z"/>
<path d="M1660 220 c0 -16 7 -20 35 -20 l35 0 0 -85 c0 -78 2 -85 20 -85 18 0
20 7 20 85 l0 85 35 0 c28 0 35 4 35 20 0 19 -7 20 -90 20 -83 0 -90 -1 -90
-20z"/>
<path d="M1870 136 l0 -106 25 0 c21 0 25 5 25 30 0 42 39 42 63 0 13 -21 26
-30 43 -30 l26 0 -21 34 c-21 33 -21 33 -1 51 25 23 26 66 1 96 -16 19 -30 24
-90 27 l-71 4 0 -106z m118 55 c8 -4 12 -19 10 -32 -2 -20 -10 -25 -40 -27
-37 -3 -38 -3 -38 32 0 33 3 36 28 36 15 0 33 -4 40 -9z"/>
<path d="M2090 135 l0 -105 25 0 25 0 0 105 0 105 -25 0 -25 0 0 -105z"/>
<path d="M2190 135 l0 -105 64 0 c36 0 76 4 89 9 33 13 43 46 23 77 -13 19
-14 29 -6 44 26 49 -16 80 -110 80 l-60 0 0 -105z m127 49 c8 -21 -15 -35 -52
-32 -23 2 -31 9 -33 26 -3 20 1 22 38 22 28 0 43 -5 47 -16z m8 -89 c0 -17 -8
-20 -47 -23 -46 -3 -48 -2 -48 23 0 25 2 26 48 23 39 -3 47 -6 47 -23z"/>
<path d="M2410 170 c0 -74 17 -123 45 -134 33 -12 93 -6 116 13 21 17 24 29
28 105 l3 86 -26 0 c-26 0 -26 -1 -26 -73 0 -77 -9 -97 -45 -97 -36 0 -45 20
-45 97 0 71 -1 73 -25 73 -24 0 -25 -2 -25 -70z"/>
<path d="M2662 224 c-25 -17 -30 -65 -8 -83 8 -6 33 -17 57 -24 66 -19 59 -42
-13 -41 -40 1 -58 -3 -62 -13 -12 -30 102 -46 141 -18 50 35 28 87 -47 108
-63 18 -61 42 4 43 51 1 72 18 45 35 -23 14 -93 10 -117 -7z"/>
<path d="M2840 136 l0 -106 25 0 26 0 -3 103 c-3 97 -4 102 -25 105 -23 3 -23
2 -23 -102z"/>
</g>
</svg>
