<svg width="20" height="20" viewBox="0 0 20 20" fill="none" xmlns="http://www.w3.org/2000/svg">
<path d="M6.66634 18.3334C7.12658 18.3334 7.49967 17.9603 7.49967 17.5001C7.49967 17.0398 7.12658 16.6667 6.66634 16.6667C6.2061 16.6667 5.83301 17.0398 5.83301 17.5001C5.83301 17.9603 6.2061 18.3334 6.66634 18.3334Z" stroke="#5D6679" stroke-width="1.66667" stroke-linecap="round" stroke-linejoin="round"/>
<path d="M15.8333 18.3334C16.2936 18.3334 16.6667 17.9603 16.6667 17.5001C16.6667 17.0398 16.2936 16.6667 15.8333 16.6667C15.3731 16.6667 15 17.0398 15 17.5001C15 17.9603 15.3731 18.3334 15.8333 18.3334Z" stroke="#5D6679" stroke-width="1.66667" stroke-linecap="round" stroke-linejoin="round"/>
<path d="M1.70801 1.70825H3.37467L5.59134 12.0583C5.67266 12.4373 5.88357 12.7761 6.18777 13.0165C6.49197 13.2568 6.87043 13.3835 7.25801 13.3749H15.408C15.7873 13.3743 16.1551 13.2443 16.4505 13.0064C16.746 12.7686 16.9515 12.437 17.033 12.0666L18.408 5.87492H4.26634" stroke="#5D6679" stroke-linecap="round" stroke-linejoin="round"/>
</svg>
