<svg width="30" height="30" viewBox="0 0 30 30" fill="none" xmlns="http://www.w3.org/2000/svg">
<rect width="30" height="30" rx="4" fill="#FFEEDB"/>
<path d="M23.4385 2.90039C23.9372 2.90039 24.4094 3.11848 24.751 3.48828L24.8896 3.65527L24.8906 3.65625L27.4512 7.23047L27.5645 7.38867H27.5078C27.5112 7.41816 27.5109 7.44945 27.5 7.48242V24.9795C27.5 25.8673 26.7715 26.6287 25.8516 26.6289H3.96094C3.04189 26.6289 2.3125 25.8983 2.3125 24.9795V7.46777C2.3125 7.38002 2.35495 7.29791 2.38184 7.24414L2.38574 7.2373L2.39062 7.23047L4.94922 3.65918C5.26698 3.18266 5.83628 2.90039 6.40332 2.90039H23.4385ZM3.10742 24.9795C3.10742 25.4328 3.48218 25.833 3.96094 25.833H25.8809C26.3341 25.833 26.7344 25.4583 26.7344 24.9795V7.86523H18.5947V12.8584C18.5947 13.103 18.4569 13.3416 18.2529 13.4775L18.2451 13.4824L18.2363 13.4863C18.013 13.5819 17.7689 13.6219 17.5225 13.4814V13.4805L14.9209 12.0781L12.3174 13.4824C12.2111 13.5505 12.0767 13.5839 11.9727 13.584C11.8388 13.584 11.6983 13.5506 11.5889 13.4775C11.3871 13.3431 11.2471 13.1352 11.2471 12.8584V7.86523H3.10742V24.9795ZM12.043 7.54102V12.7803L14.873 11.2217L14.9209 11.1953L14.9688 11.2217L17.7988 12.751V7.50977L16.7217 3.69531H13.1504L12.043 7.54102ZM18.5107 7.06934H26.3711L24.251 4.10059V4.09961C24.0596 3.85605 23.7613 3.69547 23.4395 3.69531H17.5557L18.5107 7.06934ZM6.40332 3.69531C6.07443 3.69531 5.77946 3.83171 5.5918 4.09961L5.59082 4.10059L3.4707 7.06934H11.3613L12.3164 3.69531H6.40332Z" fill="#DBA362" stroke="#DBA362" stroke-width="0.2"/>
<path d="M17.4033 7.06982V7.86475H12.4385V7.06982H17.4033Z" fill="#DBA362" stroke="#DBA362" stroke-width="0.2"/>
</svg>
