<svg width="20" height="20" viewBox="0 0 20 20" fill="none" xmlns="http://www.w3.org/2000/svg">
<path d="M11.667 14.9999V4.99992C11.667 4.55789 11.4914 4.13397 11.1788 3.82141C10.8663 3.50885 10.4424 3.33325 10.0003 3.33325H3.33366C2.89163 3.33325 2.46771 3.50885 2.15515 3.82141C1.84259 4.13397 1.66699 4.55789 1.66699 4.99992V14.1666C1.66699 14.3876 1.75479 14.5996 1.91107 14.7558C2.06735 14.9121 2.27931 14.9999 2.50033 14.9999H4.16699" stroke="#5D6679" stroke-linecap="round" stroke-linejoin="round"/>
<path d="M12.5 15H7.5" stroke="#5D6679" stroke-linecap="round" stroke-linejoin="round"/>
<path d="M15.8337 15.0001H17.5003C17.7213 15.0001 17.9333 14.9123 18.0896 14.756C18.2459 14.5997 18.3337 14.3878 18.3337 14.1667V11.1251C18.3333 10.936 18.2687 10.7526 18.1503 10.6051L15.2503 6.98008C15.1724 6.88248 15.0735 6.80365 14.961 6.74941C14.8485 6.69518 14.7252 6.66693 14.6003 6.66675H11.667" stroke="#5D6679" stroke-linecap="round" stroke-linejoin="round"/>
<path d="M14.1667 16.6666C15.0871 16.6666 15.8333 15.9204 15.8333 14.9999C15.8333 14.0794 15.0871 13.3333 14.1667 13.3333C13.2462 13.3333 12.5 14.0794 12.5 14.9999C12.5 15.9204 13.2462 16.6666 14.1667 16.6666Z" stroke="#5D6679" stroke-linecap="round" stroke-linejoin="round"/>
<path d="M5.83366 16.6666C6.75413 16.6666 7.50033 15.9204 7.50033 14.9999C7.50033 14.0794 6.75413 13.3333 5.83366 13.3333C4.91318 13.3333 4.16699 14.0794 4.16699 14.9999C4.16699 15.9204 4.91318 16.6666 5.83366 16.6666Z" stroke="#5D6679" stroke-linecap="round" stroke-linejoin="round"/>
</svg>
