<svg width="30" height="30" viewBox="0 0 30 30" fill="none" xmlns="http://www.w3.org/2000/svg">
<rect width="30" height="30" rx="4" fill="#ECEAFF"/>
<path d="M14.8123 2C12.3259 2 9.94131 2.98774 8.18343 4.74572C6.42524 6.50391 5.4375 8.88846 5.4375 11.3751C5.4375 16.375 13.9874 25.7498 14.3501 26.1751C14.4694 26.3038 14.6372 26.3762 14.8125 26.3752C14.9879 26.3762 15.1557 26.3038 15.275 26.1751L16.0624 25.2813V25.7501C16.0624 26.0816 16.1943 26.3996 16.4287 26.634C16.663 26.8684 16.9809 27 17.3126 27H24.8125C25.144 27 25.4618 26.8684 25.6962 26.634C25.9308 26.3996 26.0624 26.0816 26.0624 25.7501V18.2502C26.0624 17.9187 25.9308 17.6006 25.6962 17.3663C25.4618 17.1319 25.1439 17.0003 24.8125 17.0003H22.1687C23.5061 14.6877 24.1874 12.8004 24.1874 11.3753C24.1874 9.72968 23.7543 8.11297 22.9315 6.68787C22.1087 5.26262 20.9251 4.07924 19.5 3.2564C18.0749 2.43355 16.4582 2.00043 14.8125 2.00043L14.8123 2ZM24.8123 25.7495H17.3124V18.2496H19.1874V20.7497C19.188 20.9663 19.3008 21.1672 19.4854 21.2804C19.67 21.3938 19.9002 21.4034 20.0935 21.3059L21.0622 20.8246L22.0309 21.3059H22.0311C22.1181 21.3505 22.2144 21.3741 22.3123 21.3745C22.4293 21.3749 22.5442 21.3425 22.6436 21.2808C22.8267 21.1663 22.9378 20.9656 22.9374 20.7497V18.2496H24.8124L24.8123 25.7495ZM21.6875 18.2496V19.7371L21.3748 19.5684C21.198 19.4793 20.9892 19.4793 20.8123 19.5684L20.4685 19.7371V18.2496H21.6875ZM19.8125 16.9997H17.3124C16.9808 16.9997 16.6629 17.1313 16.4285 17.3657C16.1941 17.6001 16.0623 17.9181 16.0623 18.2496V23.3495C15.5561 23.9746 15.1186 24.4682 14.8124 24.8121C13.0312 22.7808 6.68731 15.2936 6.68731 11.3749C6.68731 8.472 8.23604 5.79014 10.7499 4.33837C13.2638 2.8866 16.3609 2.88692 18.8745 4.33837C21.388 5.78981 22.9371 8.47189 22.9371 11.3749C22.9371 12.6811 22.1622 14.6249 20.712 16.9998L19.8125 16.9997Z" fill="#817AF3" fill-opacity="0.6"/>
<path d="M14.8125 7C13.6522 7 12.5395 7.461 11.719 8.28131C10.8985 9.1018 10.4375 10.2147 10.4375 11.375C10.4375 12.5352 10.8985 13.648 11.719 14.4685C12.5395 15.289 13.6522 15.7498 14.8125 15.7498C15.9729 15.7498 17.0855 15.289 17.906 14.4685C18.7265 13.648 19.1875 12.5352 19.1875 11.375C19.1875 10.2147 18.7265 9.1018 17.906 8.28131C17.0855 7.46103 15.9729 7 14.8125 7ZM14.8125 14.4999C13.9836 14.4999 13.1888 14.1707 12.6029 13.5846C12.0168 12.9986 11.6876 12.2037 11.6876 11.375C11.6876 10.5461 12.0168 9.75134 12.6029 9.16523C13.1889 8.57927 13.9836 8.24991 14.8125 8.24991C15.6414 8.24991 16.4362 8.57929 17.0221 9.16523C17.6082 9.75134 17.9374 10.5461 17.9374 11.375C17.9374 12.2037 17.6082 12.9987 17.0221 13.5846C16.4361 14.1707 15.6414 14.4999 14.8125 14.4999Z" fill="#817AF3" fill-opacity="0.6"/>
</svg>
