<svg width="14" height="14" viewBox="0 0 14 14" fill="none" xmlns="http://www.w3.org/2000/svg">
<g clip-path="url(#clip0_603_1411)">
<path d="M8.16699 10.5002V3.50016C8.16699 3.19074 8.04408 2.894 7.82528 2.6752C7.60649 2.45641 7.30974 2.3335 7.00033 2.3335H2.33366C2.02424 2.3335 1.72749 2.45641 1.5087 2.6752C1.28991 2.894 1.16699 3.19074 1.16699 3.50016V9.91683C1.16699 10.0715 1.22845 10.2199 1.33785 10.3293C1.44724 10.4387 1.59562 10.5002 1.75033 10.5002H2.91699" stroke="#894B00" stroke-width="1.16667" stroke-linecap="round" stroke-linejoin="round"/>
<path d="M8.75 10.5H5.25" stroke="#894B00" stroke-width="1.16667" stroke-linecap="round" stroke-linejoin="round"/>
<path d="M11.0837 10.4998H12.2503C12.405 10.4998 12.5534 10.4384 12.6628 10.329C12.7722 10.2196 12.8337 10.0712 12.8337 9.9165V7.78734C12.8334 7.65496 12.7882 7.52659 12.7053 7.42334L10.6753 4.88584C10.6208 4.81752 10.5516 4.76233 10.4728 4.72437C10.394 4.6864 10.3078 4.66663 10.2203 4.6665H8.16699" stroke="#894B00" stroke-width="1.16667" stroke-linecap="round" stroke-linejoin="round"/>
<path d="M9.91667 11.6668C10.561 11.6668 11.0833 11.1445 11.0833 10.5002C11.0833 9.85583 10.561 9.3335 9.91667 9.3335C9.27233 9.3335 8.75 9.85583 8.75 10.5002C8.75 11.1445 9.27233 11.6668 9.91667 11.6668Z" stroke="#894B00" stroke-width="1.16667" stroke-linecap="round" stroke-linejoin="round"/>
<path d="M4.08366 11.6668C4.72799 11.6668 5.25033 11.1445 5.25033 10.5002C5.25033 9.85583 4.72799 9.3335 4.08366 9.3335C3.43933 9.3335 2.91699 9.85583 2.91699 10.5002C2.91699 11.1445 3.43933 11.6668 4.08366 11.6668Z" stroke="#894B00" stroke-width="1.16667" stroke-linecap="round" stroke-linejoin="round"/>
</g>
<defs>
<clipPath id="clip0_603_1411">
<rect width="14" height="14" fill="white"/>
</clipPath>
</defs>
</svg>
