<svg width="16" height="16" viewBox="0 0 16 16" fill="none" xmlns="http://www.w3.org/2000/svg">
<g clip-path="url(#clip0_676_5056)">
<path d="M5.33366 14.6668C5.70185 14.6668 6.00033 14.3684 6.00033 14.0002C6.00033 13.632 5.70185 13.3335 5.33366 13.3335C4.96547 13.3335 4.66699 13.632 4.66699 14.0002C4.66699 14.3684 4.96547 14.6668 5.33366 14.6668Z" stroke="white" stroke-width="1.33333" stroke-linecap="round" stroke-linejoin="round"/>
<path d="M12.6667 14.6668C13.0349 14.6668 13.3333 14.3684 13.3333 14.0002C13.3333 13.632 13.0349 13.3335 12.6667 13.3335C12.2985 13.3335 12 13.632 12 14.0002C12 14.3684 12.2985 14.6668 12.6667 14.6668Z" stroke="white" stroke-width="1.33333" stroke-linecap="round" stroke-linejoin="round"/>
<path d="M1.36621 1.3667H2.69954L4.47288 9.6467C4.53793 9.94994 4.70666 10.221 4.95002 10.4133C5.19338 10.6055 5.49615 10.7069 5.80621 10.7H12.3262C12.6297 10.6995 12.9239 10.5956 13.1602 10.4053C13.3966 10.215 13.561 9.94972 13.6262 9.65337L14.7262 4.70003H3.41288" stroke="white" stroke-linecap="round" stroke-linejoin="round"/>
</g>
<defs>
<clipPath id="clip0_676_5056">
<rect width="16" height="16" fill="white"/>
</clipPath>
</defs>
</svg>
