<svg width="20" height="20" viewBox="0 0 20 20" fill="none" xmlns="http://www.w3.org/2000/svg">
<path d="M18.3337 6.95833V16.6667C18.3337 17.1087 18.1581 17.5326 17.8455 17.8452C17.5329 18.1577 17.109 18.3333 16.667 18.3333H3.33366C2.89163 18.3333 2.46771 18.1577 2.15515 17.8452C1.84259 17.5326 1.66699 17.1087 1.66699 16.6667V6.95833C1.66833 6.62595 1.76902 6.30157 1.95613 6.02685C2.14323 5.75214 2.4082 5.53964 2.71699 5.41666L9.38366 2.74999C9.77965 2.59229 10.221 2.59229 10.617 2.74999L17.2837 5.41666C17.5925 5.53964 17.8574 5.75214 18.0445 6.02685C18.2316 6.30157 18.3323 6.62595 18.3337 6.95833Z" stroke="#5D6679" stroke-linecap="round" stroke-linejoin="round"/>
<path d="M5 15H15" stroke="#5D6679" stroke-linecap="round" stroke-linejoin="round"/>
<path d="M5 11.6667H15" stroke="#5D6679" stroke-linecap="round" stroke-linejoin="round"/>
<path d="M15 8.33334H5V18.3333H15V8.33334Z" stroke="#5D6679" stroke-linecap="round" stroke-linejoin="round"/>
</svg>
